ffmpeg started on 2016-11-28 at 04:13:39
Report written to "Output/NVENCh264/results/ffmpeg/sintelllhp9000k.log"
Command line:
Tools/ffmpeg/ffmpeg -benchmark -y -i Input/y4m/sintel.y4m -c:v h264_nvenc -preset llhp -b:v 9000k -an Output/NVENCh264/encoded/sintelllhp9000k.mkv
ffmpeg version N-82227-gdb23fde Copyright (c) 2000-2016 the FFmpeg developers
  built with gcc 5.4.0 (Ubuntu 5.4.0-6ubuntu1~16.04.2) 20160609
  configuration: --prefix=/home/jaroslav/ffmpeg_build --pkg-config-flags=--static --extra-cflags=-I/home/jaroslav/ffmpeg_build/include --extra-ldflags=-L/home/jaroslav/ffmpeg_build/lib --bindir=/home/jaroslav/bin --enable-gpl --enable-libass --enable-libfdk-aac --enable-libfreetype --enable-libmp3lame --enable-libopus --enable-libtheora --enable-libvorbis --enable-libvpx --enable-libx264 --enable-libx265 --enable-nvenc --enable-libmfx --enable-libxvid --enable-libgsm --enable-libopencore-amrnb --enable-version3 --enable-nonfree
  libavutil      55. 35.100 / 55. 35.100
  libavcodec     57. 66.101 / 57. 66.101
  libavformat    57. 57.100 / 57. 57.100
  libavdevice    57.  2.100 / 57.  2.100
  libavfilter     6. 66.100 /  6. 66.100
  libswscale      4.  3.100 /  4.  3.100
  libswresample   2.  4.100 /  2.  4.100
  libpostproc    54.  2.100 / 54.  2.100
Input #0, yuv4mpegpipe, from 'Input/y4m/sintel.y4m':
  Duration: 00:00:20.83, start: 0.000000, bitrate: 2057307 kb/s
    Stream #0:0: Video: rawvideo (I420 / 0x30323449), yuv420p(progressive), 4096x1744, SAR 1:1 DAR 256:109, 24 fps, 24 tbr, 24 tbn, 24 tbc
[h264_nvenc @ 0x3ad01c0] The variable bitrate rate-control requires the 'qmin' and/or 'qmax' option set.
Output #0, matroska, to 'Output/NVENCh264/encoded/sintelllhp9000k.mkv':
  Metadata:
    encoder         : Lavf57.57.100
    Stream #0:0: Video: h264 (h264_nvenc) (Main) (H264 / 0x34363248), yuv420p, 4096x1744 [SAR 1:1 DAR 256:109], q=-1--1, 9000 kb/s, 24 fps, 1k tbn, 24 tbc
    Metadata:
      encoder         : Lavc57.66.101 h264_nvenc
    Side data:
      cpb: bitrate max/min/avg: 0/0/9000000 buffer size: 18000000 vbv_delay: -1
Stream mapping:
  Stream #0:0 -> #0:0 (rawvideo (native) -> h264 (h264_nvenc))
Press [q] to stop, [?] for help
frame=    3 fps=1.0 q=0.0 size=       0kB time=00:00:00.00 bitrate=N/A speed=   0x    frame=   22 fps=6.3 q=0.0 size=       0kB time=00:00:00.00 bitrate=N/A speed=   0x    frame=   43 fps= 11 q=36.0 size=       1kB time=00:00:00.50 bitrate=  11.9kbits/s speed=0.126x    frame=   64 fps= 14 q=35.0 size=       1kB time=00:00:01.37 bitrate=   4.3kbits/s speed=0.307x    frame=   85 fps= 17 q=34.0 size=       1kB time=00:00:02.25 bitrate=   2.7kbits/s speed=0.451x    frame=  106 fps= 19 q=31.0 size=       1kB time=00:00:03.12 bitrate=   1.9kbits/s speed=0.569x    frame=  127 fps= 21 q=30.0 size=       1kB time=00:00:04.00 bitrate=   1.5kbits/s speed=0.666x    frame=  147 fps= 23 q=32.0 size=    5218kB time=00:00:04.83 bitrate=8842.8kbits/s speed=0.741x    frame=  168 fps= 24 q=33.0 size=    5218kB time=00:00:05.70 bitrate=7487.5kbits/s speed=0.812x    frame=  189 fps= 25 q=32.0 size=    5218kB time=00:00:06.58 bitrate=6492.4kbits/s speed=0.873x    frame=  195 fps= 24 q=30.0 size=    5218kB time=00:00:06.83 bitrate=6254.9kbits/s speed=0.836x    frame=  196 fps= 17 q=31.0 size=    5218kB time=00:00:06.87 bitrate=6216.7kbits/s speed=0.581x    frame=  215 fps= 17 q=33.0 size=    5218kB time=00:00:07.66 bitrate=5574.6kbits/s speed=0.621x    frame=  236 fps= 18 q=32.0 size=    5218kB time=00:00:08.54 bitrate=5003.7kbits/s speed=0.664x    frame=  257 fps= 19 q=32.0 size=    5218kB time=00:00:09.41 bitrate=4538.8kbits/s speed=0.704x    frame=  277 fps= 20 q=28.0 size=   10365kB time=00:00:10.25 bitrate=8283.1kbits/s speed=0.739x    frame=  298 fps= 21 q=32.0 size=   12039kB time=00:00:11.12 bitrate=8864.6kbits/s speed=0.773x    frame=  319 fps= 21 q=31.0 size=   12039kB time=00:00:12.00 bitrate=8218.3kbits/s speed=0.805x    frame=  340 fps= 22 q=26.0 size=   12039kB time=00:00:12.87 bitrate=7659.8kbits/s speed=0.835x    frame=  361 fps= 23 q=25.0 size=   12039kB time=00:00:13.75 bitrate=7172.4kbits/s speed=0.864x    frame=  382 fps= 23 q=25.0 size=   12039kB time=00:00:14.62 bitrate=6743.3kbits/s speed=0.89x    frame=  403 fps= 24 q=25.0 size=   12039kB time=00:00:15.50 bitrate=6362.6kbits/s speed=0.915x    frame=  423 fps= 24 q=26.0 size=   17192kB time=00:00:16.33 bitrate=8622.2kbits/s speed=0.936x    frame=  444 fps= 25 q=29.0 size=   17192kB time=00:00:17.20 bitrate=8183.8kbits/s speed=0.958x    frame=  465 fps= 25 q=30.0 size=   19165kB time=00:00:18.08 bitrate=8681.6kbits/s speed=0.979x    frame=  486 fps= 26 q=31.0 size=   19165kB time=00:00:18.95 bitrate=8280.9kbits/s speed=0.999x    frame=  500 fps= 26 q=30.0 Lsize=   22989kB time=00:00:20.79 bitrate=9057.4kbits/s speed=1.07x    
video:22985kB audio:0kB subtitle:0kB other streams:0kB global headers:0kB muxing overhead: 0.021167%
bench: utime=0.856s
bench: maxrss=1194872kB
